<mxfile host="app.diagrams.net" modified="2021-05-19T23:41:19.906Z" agent="5.0 (Windows NT 10.0; Win64; x64) AppleWebKit/537.36 (KHTML, like Gecko) Chrome/90.0.4430.212 Safari/537.36" etag="fPKYbWgtc9I-kpJbU6Mu" version="14.6.13" type="github">
  <diagram id="X5voNKLdeEf3nqLwwMQk" name="Page-1">
    <mxGraphModel dx="2031" dy="2189" grid="1" gridSize="10" guides="1" tooltips="1" connect="1" arrows="1" fold="1" page="1" pageScale="1" pageWidth="850" pageHeight="1100" math="0" shadow="0">
      <root>
        <mxCell id="0" />
        <mxCell id="1" parent="0" />
        <UserObject label="index.js" lucidchartObjectId="Pa_DaYVvJ18X" id="f0FpSUrETxbEvMmUkoHB-9">
          <mxCell style="html=1;overflow=block;blockSpacing=1;whiteSpace=wrap;;whiteSpace=wrap;fontSize=16.7;fontColor=#333333;spacing=9;strokeColor=#5e5e5e;strokeOpacity=100;rounded=1;absoluteArcSize=1;arcSize=9;strokeWidth=2.3;" vertex="1" parent="1">
            <mxGeometry x="270" y="75" width="120" height="90" as="geometry" />
          </mxCell>
        </UserObject>
        <UserObject label="server.js" lucidchartObjectId="Eb_D7bBhKt3i" id="f0FpSUrETxbEvMmUkoHB-10">
          <mxCell style="html=1;overflow=block;blockSpacing=1;whiteSpace=wrap;;whiteSpace=wrap;fontSize=16.7;fontColor=#333333;spacing=9;strokeColor=#5e5e5e;strokeOpacity=100;rounded=1;absoluteArcSize=1;arcSize=9;strokeWidth=2.3;" vertex="1" parent="1">
            <mxGeometry x="585" y="75" width="120" height="90" as="geometry" />
          </mxCell>
        </UserObject>
        <UserObject label="request" lucidchartObjectId="rg_DPOAWg73Y" id="f0FpSUrETxbEvMmUkoHB-11">
          <mxCell style="html=1;overflow=block;blockSpacing=1;whiteSpace=wrap;rounded=1;arcSize=50;whiteSpace=wrap;fontSize=16.7;fontColor=#333333;spacing=3.8;strokeColor=#5e5e5e;strokeOpacity=100;strokeWidth=2.3;" vertex="1" parent="1">
            <mxGeometry x="30" y="90" width="120" height="60" as="geometry" />
          </mxCell>
        </UserObject>
        <UserObject label="routes" lucidchartObjectId="Rh_DGkKb8hnh" id="f0FpSUrETxbEvMmUkoHB-12">
          <mxCell style="html=1;overflow=block;blockSpacing=1;whiteSpace=wrap;;whiteSpace=wrap;fontSize=16.7;fontColor=#333333;spacing=9;strokeColor=#5e5e5e;strokeOpacity=100;rounded=1;absoluteArcSize=1;arcSize=9;strokeWidth=2.3;" vertex="1" parent="1">
            <mxGeometry x="870" y="75" width="120" height="90" as="geometry" />
          </mxCell>
        </UserObject>
        <UserObject label="" lucidchartObjectId="1h_DiyQXBMXK" id="f0FpSUrETxbEvMmUkoHB-13">
          <mxCell style="html=1;jettySize=18;whiteSpace=wrap;fontSize=13;strokeColor=#5E5E5E;strokeWidth=1.5;rounded=1;arcSize=12;edgeStyle=orthogonalEdgeStyle;startArrow=none;;endArrow=block;endFill=1;;exitX=1.009;exitY=0.5;exitPerimeter=0;entryX=-0.009;entryY=0.5;entryPerimeter=0;" edge="1" parent="1" source="f0FpSUrETxbEvMmUkoHB-10" target="f0FpSUrETxbEvMmUkoHB-12">
            <mxGeometry width="100" height="100" relative="1" as="geometry">
              <Array as="points" />
            </mxGeometry>
          </mxCell>
        </UserObject>
        <mxCell id="f0FpSUrETxbEvMmUkoHB-14" value="route" style="text;html=1;resizable=0;labelBackgroundColor=#ffffff;align=center;verticalAlign=middle;fontStyle=1;fontColor=#333333;;fontSize=13.3;" vertex="1" parent="f0FpSUrETxbEvMmUkoHB-13">
          <mxGeometry relative="1" as="geometry">
            <mxPoint y="-11.5" as="offset" />
          </mxGeometry>
        </mxCell>
        <UserObject label="model" lucidchartObjectId="Ik_D0W2XDRBH" id="f0FpSUrETxbEvMmUkoHB-15">
          <mxCell style="html=1;overflow=block;blockSpacing=1;whiteSpace=wrap;;whiteSpace=wrap;fontSize=16.7;fontColor=#333333;spacing=9;strokeColor=#5e5e5e;strokeOpacity=100;rounded=1;absoluteArcSize=1;arcSize=9;strokeWidth=2.3;" vertex="1" parent="1">
            <mxGeometry x="1170" y="75" width="120" height="90" as="geometry" />
          </mxCell>
        </UserObject>
        <UserObject label="" lucidchartObjectId="Rk_DoJQCYKr4" id="f0FpSUrETxbEvMmUkoHB-16">
          <mxCell style="html=1;jettySize=18;whiteSpace=wrap;fontSize=13;strokeColor=#5E5E5E;strokeWidth=1.5;rounded=1;arcSize=12;edgeStyle=orthogonalEdgeStyle;startArrow=none;;endArrow=block;endFill=1;;exitX=1.009;exitY=0.5;exitPerimeter=0;entryX=-0.009;entryY=0.5;entryPerimeter=0;" edge="1" parent="1" source="f0FpSUrETxbEvMmUkoHB-12" target="f0FpSUrETxbEvMmUkoHB-15">
            <mxGeometry width="100" height="100" relative="1" as="geometry">
              <Array as="points" />
            </mxGeometry>
          </mxCell>
        </UserObject>
        <mxCell id="f0FpSUrETxbEvMmUkoHB-17" value="object" style="text;html=1;resizable=0;labelBackgroundColor=#ffffff;align=center;verticalAlign=middle;fontStyle=1;fontColor=#333333;;fontSize=13.3;" vertex="1" parent="f0FpSUrETxbEvMmUkoHB-16">
          <mxGeometry relative="1" as="geometry">
            <mxPoint y="-11.5" as="offset" />
          </mxGeometry>
        </mxCell>
        <UserObject label="" lucidchartObjectId="Eo_DDd7uZqXH" id="f0FpSUrETxbEvMmUkoHB-18">
          <mxCell style="html=1;jettySize=18;whiteSpace=wrap;fontSize=13;strokeColor=#5E5E5E;strokeWidth=1.5;rounded=1;arcSize=12;edgeStyle=orthogonalEdgeStyle;startArrow=none;;endArrow=block;endFill=1;;exitX=1.009;exitY=0.5;exitPerimeter=0;entryX=-0.009;entryY=0.5;entryPerimeter=0;" edge="1" parent="1" source="f0FpSUrETxbEvMmUkoHB-11" target="f0FpSUrETxbEvMmUkoHB-9">
            <mxGeometry width="100" height="100" relative="1" as="geometry">
              <Array as="points" />
            </mxGeometry>
          </mxCell>
        </UserObject>
        <UserObject label="" lucidchartObjectId="Jo_Db.__DC7M" id="f0FpSUrETxbEvMmUkoHB-19">
          <mxCell style="html=1;jettySize=18;whiteSpace=wrap;fontSize=13;strokeColor=#5E5E5E;strokeWidth=1.5;rounded=1;arcSize=12;edgeStyle=orthogonalEdgeStyle;startArrow=none;;endArrow=block;endFill=1;;exitX=1.009;exitY=0.5;exitPerimeter=0;entryX=-0.009;entryY=0.5;entryPerimeter=0;" edge="1" parent="1" source="f0FpSUrETxbEvMmUkoHB-9" target="f0FpSUrETxbEvMmUkoHB-10">
            <mxGeometry width="100" height="100" relative="1" as="geometry">
              <Array as="points" />
            </mxGeometry>
          </mxCell>
        </UserObject>
        <mxCell id="f0FpSUrETxbEvMmUkoHB-20" value="connecting to mongo" style="text;html=1;resizable=0;labelBackgroundColor=#ffffff;align=center;verticalAlign=middle;fontStyle=1;fontColor=#333333;;fontSize=13.3;" vertex="1" parent="f0FpSUrETxbEvMmUkoHB-19">
          <mxGeometry relative="1" as="geometry">
            <mxPoint y="-11.5" as="offset" />
          </mxGeometry>
        </mxCell>
        <UserObject label="database" lucidchartObjectId="mp_DmhuZXBzQ" id="f0FpSUrETxbEvMmUkoHB-21">
          <mxCell style="html=1;overflow=block;blockSpacing=1;whiteSpace=wrap;;whiteSpace=wrap;fontSize=16.7;fontColor=#333333;spacing=9;strokeColor=#5e5e5e;strokeOpacity=100;rounded=1;absoluteArcSize=1;arcSize=9;strokeWidth=2.3;" vertex="1" parent="1">
            <mxGeometry x="1170" y="345" width="120" height="90" as="geometry" />
          </mxCell>
        </UserObject>
        <UserObject label="" lucidchartObjectId="zp_DTOxv7Acf" id="f0FpSUrETxbEvMmUkoHB-22">
          <mxCell style="html=1;jettySize=18;whiteSpace=wrap;fontSize=13;strokeColor=#5E5E5E;strokeWidth=1.5;rounded=1;arcSize=12;edgeStyle=orthogonalEdgeStyle;startArrow=none;;endArrow=block;endFill=1;;exitX=0.5;exitY=1.013;exitPerimeter=0;entryX=0.5;entryY=-0.013;entryPerimeter=0;" edge="1" parent="1" source="f0FpSUrETxbEvMmUkoHB-15" target="f0FpSUrETxbEvMmUkoHB-21">
            <mxGeometry width="100" height="100" relative="1" as="geometry">
              <Array as="points" />
            </mxGeometry>
          </mxCell>
        </UserObject>
        <mxCell id="f0FpSUrETxbEvMmUkoHB-23" value="store  data" style="text;html=1;resizable=0;labelBackgroundColor=#ffffff;align=center;verticalAlign=middle;fontStyle=1;fontColor=#333333;;fontSize=13.3;" vertex="1" parent="f0FpSUrETxbEvMmUkoHB-22">
          <mxGeometry relative="1" as="geometry">
            <mxPoint x="-29.5" as="offset" />
          </mxGeometry>
        </mxCell>
        <UserObject label="" lucidchartObjectId="aq_Du~oiouBs" id="f0FpSUrETxbEvMmUkoHB-24">
          <mxCell style="html=1;jettySize=18;whiteSpace=wrap;fontSize=13;strokeColor=#5E5E5E;strokeWidth=1.5;rounded=1;arcSize=12;edgeStyle=orthogonalEdgeStyle;startArrow=none;;endArrow=block;endFill=1;;exitX=0.5;exitY=1.013;exitPerimeter=0;entryX=0.5;entryY=0.006;entryPerimeter=0;" edge="1" parent="1" source="f0FpSUrETxbEvMmUkoHB-10" target="f0FpSUrETxbEvMmUkoHB-25">
            <mxGeometry width="100" height="100" relative="1" as="geometry">
              <Array as="points" />
            </mxGeometry>
          </mxCell>
        </UserObject>
        <UserObject label="505.js" lucidchartObjectId="dq_DplQamq-Q" id="f0FpSUrETxbEvMmUkoHB-25">
          <mxCell style="html=1;overflow=block;blockSpacing=1;whiteSpace=wrap;rhombus;whiteSpace=wrap;fontSize=16.7;fontColor=#333333;spacing=3.8;strokeColor=#5E5E5E;rounded=1;absoluteArcSize=1;arcSize=9;strokeWidth=2.3;" vertex="1" parent="1">
            <mxGeometry x="585" y="210" width="120" height="90" as="geometry" />
          </mxCell>
        </UserObject>
        <UserObject label="" lucidchartObjectId="mq_DUMjnqb72" id="f0FpSUrETxbEvMmUkoHB-26">
          <mxCell style="html=1;jettySize=18;whiteSpace=wrap;fontSize=13;strokeColor=#5E5E5E;strokeWidth=1.5;rounded=1;arcSize=12;edgeStyle=orthogonalEdgeStyle;startArrow=none;;endArrow=block;endFill=1;;exitX=0.5;exitY=-0.012;exitPerimeter=0;entryX=0.5;entryY=0.994;entryPerimeter=0;" edge="1" parent="1" source="f0FpSUrETxbEvMmUkoHB-10" target="f0FpSUrETxbEvMmUkoHB-27">
            <mxGeometry width="100" height="100" relative="1" as="geometry">
              <Array as="points" />
            </mxGeometry>
          </mxCell>
        </UserObject>
        <UserObject label="404.js" lucidchartObjectId="vq_Dz4BoF.tS" id="f0FpSUrETxbEvMmUkoHB-27">
          <mxCell style="html=1;overflow=block;blockSpacing=1;whiteSpace=wrap;rhombus;whiteSpace=wrap;fontSize=16.7;fontColor=#333333;spacing=3.8;strokeColor=#5e5e5e;strokeOpacity=100;rounded=1;absoluteArcSize=1;arcSize=9;strokeWidth=2.3;" vertex="1" parent="1">
            <mxGeometry x="585" y="-45" width="120" height="90" as="geometry" />
          </mxCell>
        </UserObject>
      </root>
    </mxGraphModel>
  </diagram>
</mxfile>
